<mxfile host="app.diagrams.net" agent="Mozilla/5.0 (Macintosh; Intel Mac OS X 10_15_7) AppleWebKit/537.36 (KHTML, like Gecko) Chrome/129.0.0.0 Safari/537.36" version="25.0.3">
  <diagram id="C5RBs43oDa-KdzZeNtuy" name="Page-1">
    <mxGraphModel dx="607" dy="1988" grid="1" gridSize="10" guides="1" tooltips="1" connect="1" arrows="1" fold="1" page="1" pageScale="1" pageWidth="827" pageHeight="1169" math="1" shadow="0">
      <root>
        <mxCell id="WIyWlLk6GJQsqaUBKTNV-0" />
        <mxCell id="WIyWlLk6GJQsqaUBKTNV-1" parent="WIyWlLk6GJQsqaUBKTNV-0" />
        <mxCell id="ywIWyBjBBA_NJopMtTMj-0" value="" style="html=1;overflow=block;blockSpacing=1;whiteSpace=wrap;fontSize=13;spacing=0;strokeColor=#6f7681;strokeOpacity=100;fillOpacity=0;fillColor=#ffffff;strokeWidth=0.8;container=1;pointerEvents=0;collapsible=0;recursiveResize=0;lucidId=N30nDekbUn9Q;" parent="WIyWlLk6GJQsqaUBKTNV-1" vertex="1">
          <mxGeometry x="1905" y="-372" width="985" height="150" as="geometry" />
        </mxCell>
        <mxCell id="zf8K1s_Cl8NIy-D5Mel1-0" value="" style="html=1;overflow=block;blockSpacing=1;whiteSpace=wrap;fontSize=13;spacing=9;strokeColor=#9673a6;strokeOpacity=100;fillOpacity=100;rounded=1;absoluteArcSize=1;arcSize=9;fillColor=#e1d5e7;strokeWidth=2.3;lucidId=J80nYq8lnvE4;" parent="ywIWyBjBBA_NJopMtTMj-0" vertex="1">
          <mxGeometry x="602.5" y="15" width="377.5" height="125" as="geometry" />
        </mxCell>
        <mxCell id="ywIWyBjBBA_NJopMtTMj-130" value="" style="html=1;overflow=block;blockSpacing=1;whiteSpace=wrap;fontSize=13;spacing=9;strokeColor=#10739e;strokeOpacity=100;fillOpacity=100;rounded=1;absoluteArcSize=1;arcSize=9;fillColor=#b1ddf0;strokeWidth=2.3;lucidId=J80nYq8lnvE4;" parent="ywIWyBjBBA_NJopMtTMj-0" vertex="1">
          <mxGeometry x="15" y="18" width="536" height="120" as="geometry" />
        </mxCell>
        <mxCell id="ywIWyBjBBA_NJopMtTMj-37" value="&lt;div&gt;Data to be transmitted&lt;/div&gt;" style="text;html=1;align=center;verticalAlign=middle;whiteSpace=wrap;rounded=0;" parent="ywIWyBjBBA_NJopMtTMj-0" vertex="1">
          <mxGeometry x="16.5" y="63.5" width="60" height="30" as="geometry" />
        </mxCell>
        <mxCell id="ywIWyBjBBA_NJopMtTMj-35" value="" style="edgeStyle=orthogonalEdgeStyle;rounded=0;orthogonalLoop=1;jettySize=auto;html=1;" parent="ywIWyBjBBA_NJopMtTMj-0" source="ywIWyBjBBA_NJopMtTMj-25" target="ywIWyBjBBA_NJopMtTMj-26" edge="1">
          <mxGeometry relative="1" as="geometry" />
        </mxCell>
        <mxCell id="ywIWyBjBBA_NJopMtTMj-25" value="QAM Modulation" style="rounded=1;whiteSpace=wrap;html=1;" parent="ywIWyBjBBA_NJopMtTMj-0" vertex="1">
          <mxGeometry x="125" y="62.5" width="120" height="30" as="geometry" />
        </mxCell>
        <mxCell id="ywIWyBjBBA_NJopMtTMj-34" value="" style="edgeStyle=orthogonalEdgeStyle;rounded=0;orthogonalLoop=1;jettySize=auto;html=1;" parent="ywIWyBjBBA_NJopMtTMj-0" source="ywIWyBjBBA_NJopMtTMj-26" target="ywIWyBjBBA_NJopMtTMj-27" edge="1">
          <mxGeometry relative="1" as="geometry" />
        </mxCell>
        <mxCell id="ywIWyBjBBA_NJopMtTMj-26" value="IFFT" style="rounded=1;whiteSpace=wrap;html=1;" parent="ywIWyBjBBA_NJopMtTMj-0" vertex="1">
          <mxGeometry x="275" y="62.5" width="120" height="30" as="geometry" />
        </mxCell>
        <mxCell id="ywIWyBjBBA_NJopMtTMj-27" value="Cyclic prefix addition" style="rounded=1;whiteSpace=wrap;html=1;" parent="ywIWyBjBBA_NJopMtTMj-0" vertex="1">
          <mxGeometry x="425" y="62.5" width="120" height="30" as="geometry" />
        </mxCell>
        <mxCell id="ywIWyBjBBA_NJopMtTMj-38" value="" style="edgeStyle=orthogonalEdgeStyle;rounded=0;orthogonalLoop=1;jettySize=auto;html=1;" parent="ywIWyBjBBA_NJopMtTMj-0" source="ywIWyBjBBA_NJopMtTMj-37" target="ywIWyBjBBA_NJopMtTMj-25" edge="1">
          <mxGeometry relative="1" as="geometry">
            <Array as="points">
              <mxPoint x="85" y="77.5" />
              <mxPoint x="85" y="77.5" />
            </Array>
          </mxGeometry>
        </mxCell>
        <mxCell id="ywIWyBjBBA_NJopMtTMj-23" value="PlutoSDR" style="text;html=1;align=center;verticalAlign=middle;whiteSpace=wrap;rounded=0;" parent="ywIWyBjBBA_NJopMtTMj-0" vertex="1">
          <mxGeometry x="920" y="107" width="60" height="30" as="geometry" />
        </mxCell>
        <mxCell id="ywIWyBjBBA_NJopMtTMj-28" value="DAC" style="rounded=1;whiteSpace=wrap;html=1;" parent="ywIWyBjBBA_NJopMtTMj-0" vertex="1">
          <mxGeometry x="611" y="63" width="120" height="30" as="geometry" />
        </mxCell>
        <mxCell id="ywIWyBjBBA_NJopMtTMj-32" value="" style="edgeStyle=orthogonalEdgeStyle;rounded=0;orthogonalLoop=1;jettySize=auto;html=1;" parent="ywIWyBjBBA_NJopMtTMj-0" source="ywIWyBjBBA_NJopMtTMj-28" target="ywIWyBjBBA_NJopMtTMj-29" edge="1">
          <mxGeometry relative="1" as="geometry" />
        </mxCell>
        <mxCell id="ywIWyBjBBA_NJopMtTMj-29" value="Upconversion" style="rounded=1;whiteSpace=wrap;html=1;" parent="ywIWyBjBBA_NJopMtTMj-0" vertex="1">
          <mxGeometry x="770" y="63" width="120" height="29" as="geometry" />
        </mxCell>
        <mxCell id="ywIWyBjBBA_NJopMtTMj-148" value="&lt;font color=&quot;#ed333b&quot;&gt;USB2&lt;br&gt;&lt;/font&gt;" style="text;html=1;align=center;verticalAlign=middle;whiteSpace=wrap;rounded=0;" parent="ywIWyBjBBA_NJopMtTMj-0" vertex="1">
          <mxGeometry x="535" y="62.5" width="67.5" height="10" as="geometry" />
        </mxCell>
        <mxCell id="ywIWyBjBBA_NJopMtTMj-64" value="" style="edgeStyle=orthogonalEdgeStyle;rounded=0;orthogonalLoop=1;jettySize=auto;html=1;" parent="ywIWyBjBBA_NJopMtTMj-0" source="ywIWyBjBBA_NJopMtTMj-27" target="ywIWyBjBBA_NJopMtTMj-28" edge="1">
          <mxGeometry relative="1" as="geometry" />
        </mxCell>
        <mxCell id="ywIWyBjBBA_NJopMtTMj-156" style="edgeStyle=orthogonalEdgeStyle;rounded=0;orthogonalLoop=1;jettySize=auto;html=1;" parent="ywIWyBjBBA_NJopMtTMj-0" source="ywIWyBjBBA_NJopMtTMj-153" edge="1">
          <mxGeometry relative="1" as="geometry">
            <mxPoint x="255" y="72" as="targetPoint" />
          </mxGeometry>
        </mxCell>
        <mxCell id="ywIWyBjBBA_NJopMtTMj-153" value="Orthogonal pilots" style="text;html=1;align=center;verticalAlign=middle;whiteSpace=wrap;rounded=0;" parent="ywIWyBjBBA_NJopMtTMj-0" vertex="1">
          <mxGeometry x="205" y="17" width="100" height="30" as="geometry" />
        </mxCell>
        <mxCell id="ywIWyBjBBA_NJopMtTMj-22" value="&lt;b&gt;&lt;font style=&quot;font-size: 18px;&quot;&gt;UE k&lt;/font&gt;&lt;/b&gt;" style="text;html=1;align=center;verticalAlign=middle;whiteSpace=wrap;rounded=0;" parent="WIyWlLk6GJQsqaUBKTNV-1" vertex="1">
          <mxGeometry x="1905" y="-402" width="60" height="30" as="geometry" />
        </mxCell>
        <mxCell id="ywIWyBjBBA_NJopMtTMj-39" value="" style="html=1;overflow=block;blockSpacing=1;whiteSpace=wrap;fontSize=13;spacing=0;strokeColor=#6f7681;strokeOpacity=100;fillOpacity=0;fillColor=#ffffff;strokeWidth=0.8;container=1;pointerEvents=0;collapsible=0;recursiveResize=0;lucidId=N30nDekbUn9Q;" parent="WIyWlLk6GJQsqaUBKTNV-1" vertex="1">
          <mxGeometry x="2440" y="-120" width="985" height="150" as="geometry" />
        </mxCell>
        <mxCell id="ywIWyBjBBA_NJopMtTMj-41" value="" style="html=1;overflow=block;blockSpacing=1;whiteSpace=wrap;fontSize=13;spacing=9;strokeColor=#9673a6;strokeOpacity=100;fillOpacity=100;rounded=1;absoluteArcSize=1;arcSize=9;fillColor=#e1d5e7;strokeWidth=2.3;lucidId=J80nYq8lnvE4;" parent="ywIWyBjBBA_NJopMtTMj-39" vertex="1">
          <mxGeometry x="720" y="18" width="225" height="120" as="geometry" />
        </mxCell>
        <mxCell id="ywIWyBjBBA_NJopMtTMj-43" value="PlutoSDR" style="text;html=1;align=center;verticalAlign=middle;whiteSpace=wrap;rounded=0;" parent="ywIWyBjBBA_NJopMtTMj-39" vertex="1">
          <mxGeometry x="885" y="108" width="60" height="30" as="geometry" />
        </mxCell>
        <mxCell id="ywIWyBjBBA_NJopMtTMj-131" value="" style="html=1;overflow=block;blockSpacing=1;whiteSpace=wrap;fontSize=13;spacing=9;strokeColor=#10739e;strokeOpacity=100;fillOpacity=100;rounded=1;absoluteArcSize=1;arcSize=9;fillColor=#b1ddf0;strokeWidth=2.3;lucidId=J80nYq8lnvE4;" parent="ywIWyBjBBA_NJopMtTMj-39" vertex="1">
          <mxGeometry x="10" y="18" width="660" height="120" as="geometry" />
        </mxCell>
        <mxCell id="ywIWyBjBBA_NJopMtTMj-44" value="Remove cyclic prefix" style="rounded=1;whiteSpace=wrap;html=1;" parent="ywIWyBjBBA_NJopMtTMj-39" vertex="1">
          <mxGeometry x="536" y="63" width="120" height="30" as="geometry" />
        </mxCell>
        <mxCell id="ywIWyBjBBA_NJopMtTMj-122" value="Data estimation" style="rounded=1;whiteSpace=wrap;html=1;" parent="ywIWyBjBBA_NJopMtTMj-39" vertex="1">
          <mxGeometry x="70" y="62" width="130" height="30" as="geometry" />
        </mxCell>
        <mxCell id="ywIWyBjBBA_NJopMtTMj-48" value="" style="edgeStyle=orthogonalEdgeStyle;rounded=0;orthogonalLoop=1;jettySize=auto;html=1;" parent="ywIWyBjBBA_NJopMtTMj-39" source="ywIWyBjBBA_NJopMtTMj-51" target="ywIWyBjBBA_NJopMtTMj-49" edge="1">
          <mxGeometry relative="1" as="geometry" />
        </mxCell>
        <mxCell id="ywIWyBjBBA_NJopMtTMj-123" value="" style="edgeStyle=orthogonalEdgeStyle;rounded=0;orthogonalLoop=1;jettySize=auto;html=1;" parent="ywIWyBjBBA_NJopMtTMj-39" source="ywIWyBjBBA_NJopMtTMj-49" target="ywIWyBjBBA_NJopMtTMj-122" edge="1">
          <mxGeometry relative="1" as="geometry" />
        </mxCell>
        <mxCell id="ywIWyBjBBA_NJopMtTMj-49" value="Channel estimation" style="rounded=1;whiteSpace=wrap;html=1;" parent="ywIWyBjBBA_NJopMtTMj-39" vertex="1">
          <mxGeometry x="250" y="62" width="105" height="30" as="geometry" />
        </mxCell>
        <mxCell id="ywIWyBjBBA_NJopMtTMj-51" value="FFT" style="rounded=1;whiteSpace=wrap;html=1;" parent="ywIWyBjBBA_NJopMtTMj-39" vertex="1">
          <mxGeometry x="385" y="62" width="120" height="30" as="geometry" />
        </mxCell>
        <mxCell id="ywIWyBjBBA_NJopMtTMj-65" value="" style="edgeStyle=orthogonalEdgeStyle;rounded=0;orthogonalLoop=1;jettySize=auto;html=1;" parent="ywIWyBjBBA_NJopMtTMj-39" source="ywIWyBjBBA_NJopMtTMj-44" target="ywIWyBjBBA_NJopMtTMj-51" edge="1">
          <mxGeometry relative="1" as="geometry" />
        </mxCell>
        <mxCell id="ywIWyBjBBA_NJopMtTMj-134" value="GNU Radio" style="text;html=1;align=center;verticalAlign=middle;whiteSpace=wrap;rounded=0;" parent="ywIWyBjBBA_NJopMtTMj-39" vertex="1">
          <mxGeometry x="580" y="108" width="110" height="30" as="geometry" />
        </mxCell>
        <mxCell id="ywIWyBjBBA_NJopMtTMj-116" value="&lt;font color=&quot;#ed333b&quot;&gt;USB2&lt;br&gt;&lt;/font&gt;" style="text;html=1;align=center;verticalAlign=middle;whiteSpace=wrap;rounded=0;" parent="ywIWyBjBBA_NJopMtTMj-39" vertex="1">
          <mxGeometry x="656" y="62" width="67.5" height="10" as="geometry" />
        </mxCell>
        <mxCell id="ywIWyBjBBA_NJopMtTMj-45" value="&lt;font style=&quot;font-size: 18px;&quot;&gt;&lt;b&gt;AP l&lt;/b&gt;&lt;/font&gt;" style="text;html=1;align=center;verticalAlign=middle;whiteSpace=wrap;rounded=0;" parent="WIyWlLk6GJQsqaUBKTNV-1" vertex="1">
          <mxGeometry x="2440" y="-150" width="60" height="30" as="geometry" />
        </mxCell>
        <mxCell id="ywIWyBjBBA_NJopMtTMj-52" value="" style="edgeStyle=orthogonalEdgeStyle;rounded=0;orthogonalLoop=1;jettySize=auto;html=1;" parent="WIyWlLk6GJQsqaUBKTNV-1" source="ywIWyBjBBA_NJopMtTMj-53" target="ywIWyBjBBA_NJopMtTMj-44" edge="1">
          <mxGeometry relative="1" as="geometry" />
        </mxCell>
        <mxCell id="ywIWyBjBBA_NJopMtTMj-53" value="ADC + synchronization" style="rounded=1;whiteSpace=wrap;html=1;" parent="WIyWlLk6GJQsqaUBKTNV-1" vertex="1">
          <mxGeometry x="3170" y="-56" width="125" height="29" as="geometry" />
        </mxCell>
        <mxCell id="ywIWyBjBBA_NJopMtTMj-55" value="&lt;font color=&quot;#ed333b&quot;&gt;Air&lt;/font&gt;" style="text;html=1;align=center;verticalAlign=middle;whiteSpace=wrap;rounded=0;" parent="WIyWlLk6GJQsqaUBKTNV-1" vertex="1">
          <mxGeometry x="2895" y="-320" width="60" height="30" as="geometry" />
        </mxCell>
        <mxCell id="ywIWyBjBBA_NJopMtTMj-56" value="RF signal" style="text;html=1;align=center;verticalAlign=middle;whiteSpace=wrap;rounded=0;" parent="WIyWlLk6GJQsqaUBKTNV-1" vertex="1">
          <mxGeometry x="2955" y="-320" width="60" height="30" as="geometry" />
        </mxCell>
        <mxCell id="ywIWyBjBBA_NJopMtTMj-60" style="edgeStyle=orthogonalEdgeStyle;rounded=0;orthogonalLoop=1;jettySize=auto;html=1;entryX=1;entryY=0.5;entryDx=0;entryDy=0;" parent="WIyWlLk6GJQsqaUBKTNV-1" source="ywIWyBjBBA_NJopMtTMj-29" target="ywIWyBjBBA_NJopMtTMj-53" edge="1">
          <mxGeometry relative="1" as="geometry" />
        </mxCell>
        <mxCell id="ywIWyBjBBA_NJopMtTMj-83" value="" style="rounded=0;whiteSpace=wrap;html=1;fillColor=none;" parent="WIyWlLk6GJQsqaUBKTNV-1" vertex="1">
          <mxGeometry x="1400" y="-513.5" width="242" height="347" as="geometry" />
        </mxCell>
        <mxCell id="ywIWyBjBBA_NJopMtTMj-84" value="&lt;font style=&quot;font-size: 12px;&quot;&gt;PlutoSDR&lt;/font&gt;" style="html=1;overflow=block;blockSpacing=1;whiteSpace=wrap;fontSize=16.7;spacing=9;strokeColor=#9673a6;strokeOpacity=100;fillOpacity=100;rounded=1;absoluteArcSize=1;arcSize=9;fillColor=#e1d5e7;strokeWidth=2.3;lucidId=gF1nI-Jwwumz;" parent="WIyWlLk6GJQsqaUBKTNV-1" vertex="1">
          <mxGeometry x="1465" y="-381.5" width="125" height="38" as="geometry" />
        </mxCell>
        <mxCell id="ywIWyBjBBA_NJopMtTMj-85" value="" style="html=1;overflow=block;blockSpacing=1;whiteSpace=wrap;fontSize=13;align=left;spacing=9;strokeColor=#5e5e5e;strokeOpacity=100;fillOpacity=100;rounded=1;absoluteArcSize=1;arcSize=9;fillColor=#fff1aa;strokeWidth=2.3;lucidId=gF1nV02LV_8w;" parent="WIyWlLk6GJQsqaUBKTNV-1" vertex="1">
          <mxGeometry x="1471.5" y="-226.5" width="112" height="40" as="geometry" />
        </mxCell>
        <mxCell id="ywIWyBjBBA_NJopMtTMj-86" value="&lt;font color=&quot;#ff0000&quot;&gt;Red text&lt;/font&gt;" style="text;html=1;align=center;verticalAlign=middle;whiteSpace=wrap;rounded=0;" parent="WIyWlLk6GJQsqaUBKTNV-1" vertex="1">
          <mxGeometry x="1495" y="-496.5" width="60" height="30" as="geometry" />
        </mxCell>
        <mxCell id="ywIWyBjBBA_NJopMtTMj-87" value="Black text" style="text;html=1;align=center;verticalAlign=middle;whiteSpace=wrap;rounded=0;" parent="WIyWlLk6GJQsqaUBKTNV-1" vertex="1">
          <mxGeometry x="1495" y="-446.5" width="60" height="30" as="geometry" />
        </mxCell>
        <mxCell id="ywIWyBjBBA_NJopMtTMj-88" value="&lt;font size=&quot;1&quot;&gt;&lt;b style=&quot;font-size: 15px;&quot;&gt;Symbol&lt;/b&gt;&lt;/font&gt;" style="text;html=1;align=center;verticalAlign=middle;whiteSpace=wrap;rounded=0;" parent="WIyWlLk6GJQsqaUBKTNV-1" vertex="1">
          <mxGeometry x="1400" y="-540" width="60" height="30" as="geometry" />
        </mxCell>
        <mxCell id="ywIWyBjBBA_NJopMtTMj-124" value="" style="edgeStyle=orthogonalEdgeStyle;rounded=0;orthogonalLoop=1;jettySize=auto;html=1;" parent="WIyWlLk6GJQsqaUBKTNV-1" source="ywIWyBjBBA_NJopMtTMj-90" target="ywIWyBjBBA_NJopMtTMj-122" edge="1">
          <mxGeometry relative="1" as="geometry" />
        </mxCell>
        <mxCell id="ywIWyBjBBA_NJopMtTMj-90" value="&lt;div align=&quot;center&quot;&gt;OSLP (Optimal Sequential Linear Processing)&lt;/div&gt;" style="html=1;overflow=block;blockSpacing=1;whiteSpace=wrap;fontSize=13;align=center;spacing=9;strokeColor=#5e5e5e;strokeOpacity=100;fillOpacity=100;rounded=1;absoluteArcSize=1;arcSize=9;fillColor=#fff1aa;strokeWidth=2.3;lucidId=gF1nV02LV_8w;" parent="WIyWlLk6GJQsqaUBKTNV-1" vertex="1">
          <mxGeometry x="2500" y="70" width="148.5" height="60" as="geometry" />
        </mxCell>
        <mxCell id="ywIWyBjBBA_NJopMtTMj-92" value="" style="html=1;overflow=block;blockSpacing=1;whiteSpace=wrap;fontSize=13;spacing=0;strokeColor=#6f7681;strokeOpacity=100;fillOpacity=0;fillColor=#ffffff;strokeWidth=0.8;container=1;pointerEvents=0;collapsible=0;recursiveResize=0;lucidId=N30nDekbUn9Q;" parent="WIyWlLk6GJQsqaUBKTNV-1" vertex="1">
          <mxGeometry x="1400" y="-120" width="985" height="150" as="geometry" />
        </mxCell>
        <mxCell id="ywIWyBjBBA_NJopMtTMj-127" value="" style="html=1;overflow=block;blockSpacing=1;whiteSpace=wrap;fontSize=13;spacing=9;strokeColor=#10739e;strokeOpacity=100;fillOpacity=100;rounded=1;absoluteArcSize=1;arcSize=9;fillColor=#b1ddf0;strokeWidth=2.3;lucidId=J80nYq8lnvE4;" parent="ywIWyBjBBA_NJopMtTMj-92" vertex="1">
          <mxGeometry x="20" y="19.5" width="616" height="120" as="geometry" />
        </mxCell>
        <mxCell id="ywIWyBjBBA_NJopMtTMj-93" value="" style="html=1;overflow=block;blockSpacing=1;whiteSpace=wrap;fontSize=13;spacing=9;strokeColor=#9673a6;strokeOpacity=100;fillOpacity=100;rounded=1;absoluteArcSize=1;arcSize=9;fillColor=#e1d5e7;strokeWidth=2.3;lucidId=J80nYq8lnvE4;" parent="ywIWyBjBBA_NJopMtTMj-92" vertex="1">
          <mxGeometry x="720" y="18" width="225" height="120" as="geometry" />
        </mxCell>
        <mxCell id="ywIWyBjBBA_NJopMtTMj-94" value="PlutoSDR" style="text;html=1;align=center;verticalAlign=middle;whiteSpace=wrap;rounded=0;" parent="ywIWyBjBBA_NJopMtTMj-92" vertex="1">
          <mxGeometry x="885" y="108" width="60" height="30" as="geometry" />
        </mxCell>
        <mxCell id="ywIWyBjBBA_NJopMtTMj-132" value="GNU Radio" style="text;html=1;align=center;verticalAlign=middle;whiteSpace=wrap;rounded=0;" parent="ywIWyBjBBA_NJopMtTMj-92" vertex="1">
          <mxGeometry x="530" y="108" width="110" height="30" as="geometry" />
        </mxCell>
        <mxCell id="ywIWyBjBBA_NJopMtTMj-101" value="ADC + synchronization" style="rounded=1;whiteSpace=wrap;html=1;" parent="ywIWyBjBBA_NJopMtTMj-92" vertex="1">
          <mxGeometry x="760" y="65" width="125" height="29" as="geometry" />
        </mxCell>
        <mxCell id="ywIWyBjBBA_NJopMtTMj-100" value="" style="edgeStyle=orthogonalEdgeStyle;rounded=0;orthogonalLoop=1;jettySize=auto;html=1;" parent="ywIWyBjBBA_NJopMtTMj-92" source="ywIWyBjBBA_NJopMtTMj-101" target="ywIWyBjBBA_NJopMtTMj-95" edge="1">
          <mxGeometry relative="1" as="geometry" />
        </mxCell>
        <mxCell id="ywIWyBjBBA_NJopMtTMj-95" value="Remove cyclic prefix" style="rounded=1;whiteSpace=wrap;html=1;" parent="ywIWyBjBBA_NJopMtTMj-92" vertex="1">
          <mxGeometry x="506" y="64.5" width="120" height="30" as="geometry" />
        </mxCell>
        <mxCell id="ywIWyBjBBA_NJopMtTMj-118" value="Data estimation" style="rounded=1;whiteSpace=wrap;html=1;" parent="ywIWyBjBBA_NJopMtTMj-92" vertex="1">
          <mxGeometry x="40" y="64.5" width="130" height="30" as="geometry" />
        </mxCell>
        <mxCell id="ywIWyBjBBA_NJopMtTMj-97" value="" style="edgeStyle=orthogonalEdgeStyle;rounded=0;orthogonalLoop=1;jettySize=auto;html=1;" parent="ywIWyBjBBA_NJopMtTMj-92" source="ywIWyBjBBA_NJopMtTMj-99" target="ywIWyBjBBA_NJopMtTMj-98" edge="1">
          <mxGeometry relative="1" as="geometry" />
        </mxCell>
        <mxCell id="ywIWyBjBBA_NJopMtTMj-119" value="" style="edgeStyle=orthogonalEdgeStyle;rounded=0;orthogonalLoop=1;jettySize=auto;html=1;" parent="ywIWyBjBBA_NJopMtTMj-92" source="ywIWyBjBBA_NJopMtTMj-98" target="ywIWyBjBBA_NJopMtTMj-118" edge="1">
          <mxGeometry relative="1" as="geometry" />
        </mxCell>
        <mxCell id="ywIWyBjBBA_NJopMtTMj-98" value="Channel estimation" style="rounded=1;whiteSpace=wrap;html=1;" parent="ywIWyBjBBA_NJopMtTMj-92" vertex="1">
          <mxGeometry x="200" y="63.5" width="125" height="30" as="geometry" />
        </mxCell>
        <mxCell id="ywIWyBjBBA_NJopMtTMj-99" value="FFT" style="rounded=1;whiteSpace=wrap;html=1;" parent="ywIWyBjBBA_NJopMtTMj-92" vertex="1">
          <mxGeometry x="355" y="63.5" width="120" height="30" as="geometry" />
        </mxCell>
        <mxCell id="ywIWyBjBBA_NJopMtTMj-129" value="" style="edgeStyle=orthogonalEdgeStyle;rounded=0;orthogonalLoop=1;jettySize=auto;html=1;" parent="ywIWyBjBBA_NJopMtTMj-92" source="ywIWyBjBBA_NJopMtTMj-95" target="ywIWyBjBBA_NJopMtTMj-99" edge="1">
          <mxGeometry relative="1" as="geometry" />
        </mxCell>
        <mxCell id="ywIWyBjBBA_NJopMtTMj-96" value="&lt;font style=&quot;font-size: 18px;&quot;&gt;&lt;b&gt;AP l+1&lt;br&gt;&lt;/b&gt;&lt;/font&gt;" style="text;html=1;align=center;verticalAlign=middle;whiteSpace=wrap;rounded=0;" parent="WIyWlLk6GJQsqaUBKTNV-1" vertex="1">
          <mxGeometry x="1400" y="-150" width="60" height="30" as="geometry" />
        </mxCell>
        <mxCell id="ywIWyBjBBA_NJopMtTMj-120" style="edgeStyle=orthogonalEdgeStyle;rounded=0;orthogonalLoop=1;jettySize=auto;html=1;" parent="WIyWlLk6GJQsqaUBKTNV-1" source="ywIWyBjBBA_NJopMtTMj-103" target="ywIWyBjBBA_NJopMtTMj-118" edge="1">
          <mxGeometry relative="1" as="geometry" />
        </mxCell>
        <mxCell id="ywIWyBjBBA_NJopMtTMj-103" value="&lt;div align=&quot;center&quot;&gt;OSLP (Optimal Sequential Linear Processing)&lt;/div&gt;" style="html=1;overflow=block;blockSpacing=1;whiteSpace=wrap;fontSize=13;align=center;spacing=9;strokeColor=#5e5e5e;strokeOpacity=100;fillOpacity=100;rounded=1;absoluteArcSize=1;arcSize=9;fillColor=#fff1aa;strokeWidth=2.3;lucidId=gF1nV02LV_8w;" parent="WIyWlLk6GJQsqaUBKTNV-1" vertex="1">
          <mxGeometry x="1430.75" y="50" width="148.5" height="60" as="geometry" />
        </mxCell>
        <mxCell id="ywIWyBjBBA_NJopMtTMj-106" value="&lt;font color=&quot;#ed333b&quot;&gt;Air&lt;/font&gt;" style="text;html=1;align=center;verticalAlign=middle;whiteSpace=wrap;rounded=0;" parent="WIyWlLk6GJQsqaUBKTNV-1" vertex="1">
          <mxGeometry x="2410" y="-222" width="60" height="30" as="geometry" />
        </mxCell>
        <mxCell id="ywIWyBjBBA_NJopMtTMj-107" value="RF signal" style="text;html=1;align=center;verticalAlign=middle;whiteSpace=wrap;rounded=0;" parent="WIyWlLk6GJQsqaUBKTNV-1" vertex="1">
          <mxGeometry x="2450" y="-222" width="60" height="30" as="geometry" />
        </mxCell>
        <mxCell id="ywIWyBjBBA_NJopMtTMj-111" style="edgeStyle=orthogonalEdgeStyle;rounded=0;orthogonalLoop=1;jettySize=auto;html=1;entryX=1;entryY=0.5;entryDx=0;entryDy=0;" parent="WIyWlLk6GJQsqaUBKTNV-1" source="ywIWyBjBBA_NJopMtTMj-29" target="ywIWyBjBBA_NJopMtTMj-101" edge="1">
          <mxGeometry relative="1" as="geometry">
            <Array as="points">
              <mxPoint x="2700" y="-200" />
              <mxPoint x="2350" y="-200" />
              <mxPoint x="2350" y="-41" />
            </Array>
          </mxGeometry>
        </mxCell>
        <mxCell id="ywIWyBjBBA_NJopMtTMj-117" value="Signal estimate AP \(l\), side matrix \(\mathbf{P}\)" style="text;html=1;align=center;verticalAlign=middle;whiteSpace=wrap;rounded=0;" parent="WIyWlLk6GJQsqaUBKTNV-1" vertex="1">
          <mxGeometry x="1950" y="40" width="210" height="30" as="geometry" />
        </mxCell>
        <mxCell id="ywIWyBjBBA_NJopMtTMj-133" value="GNU Radio" style="text;html=1;align=center;verticalAlign=middle;whiteSpace=wrap;rounded=0;" parent="WIyWlLk6GJQsqaUBKTNV-1" vertex="1">
          <mxGeometry x="2360" y="-263.5" width="110" height="30" as="geometry" />
        </mxCell>
        <mxCell id="ywIWyBjBBA_NJopMtTMj-135" style="edgeStyle=orthogonalEdgeStyle;rounded=0;orthogonalLoop=1;jettySize=auto;html=1;entryX=0.692;entryY=1;entryDx=0;entryDy=0;entryPerimeter=0;" parent="WIyWlLk6GJQsqaUBKTNV-1" source="ywIWyBjBBA_NJopMtTMj-122" target="ywIWyBjBBA_NJopMtTMj-118" edge="1">
          <mxGeometry relative="1" as="geometry">
            <Array as="points">
              <mxPoint x="2600" y="40" />
              <mxPoint x="1530" y="40" />
            </Array>
          </mxGeometry>
        </mxCell>
        <mxCell id="ywIWyBjBBA_NJopMtTMj-137" value="Medium / connection" style="text;html=1;align=center;verticalAlign=middle;whiteSpace=wrap;rounded=0;" parent="WIyWlLk6GJQsqaUBKTNV-1" vertex="1">
          <mxGeometry x="1660" y="-498.5" width="140" height="30" as="geometry" />
        </mxCell>
        <mxCell id="ywIWyBjBBA_NJopMtTMj-138" value="What is being transferred" style="text;html=1;align=center;verticalAlign=middle;whiteSpace=wrap;rounded=0;" parent="WIyWlLk6GJQsqaUBKTNV-1" vertex="1">
          <mxGeometry x="1670" y="-446.5" width="140" height="30" as="geometry" />
        </mxCell>
        <mxCell id="ywIWyBjBBA_NJopMtTMj-139" value="&lt;font style=&quot;font-size: 12px;&quot;&gt;Hardware, PlutoSDR&lt;/font&gt;" style="html=1;overflow=block;blockSpacing=1;whiteSpace=wrap;fontSize=16.7;fontColor=#333333;spacing=9;strokeOpacity=0;fillOpacity=0;rounded=1;absoluteArcSize=1;arcSize=9;fillColor=#000000;strokeWidth=2.3;lucidId=gF1ngEjmAMdY;" parent="WIyWlLk6GJQsqaUBKTNV-1" vertex="1">
          <mxGeometry x="1642" y="-377.5" width="177.5" height="30" as="geometry" />
        </mxCell>
        <mxCell id="ywIWyBjBBA_NJopMtTMj-140" value="&lt;font style=&quot;font-size: 12px;&quot;&gt;Algorithm/software&lt;/font&gt;" style="html=1;overflow=block;blockSpacing=1;whiteSpace=wrap;fontSize=16.7;fontColor=#333333;spacing=9;strokeOpacity=0;fillOpacity=0;rounded=1;absoluteArcSize=1;arcSize=9;fillColor=#000000;strokeWidth=2.3;lucidId=gF1ngEjmAMdY;" parent="WIyWlLk6GJQsqaUBKTNV-1" vertex="1">
          <mxGeometry x="1646" y="-223" width="168" height="26.5" as="geometry" />
        </mxCell>
        <mxCell id="ywIWyBjBBA_NJopMtTMj-141" value="&lt;font size=&quot;1&quot;&gt;&lt;b style=&quot;font-size: 15px;&quot;&gt;Meaning&lt;/b&gt;&lt;/font&gt;" style="text;html=1;align=center;verticalAlign=middle;whiteSpace=wrap;rounded=0;" parent="WIyWlLk6GJQsqaUBKTNV-1" vertex="1">
          <mxGeometry x="1642" y="-536.5" width="60" height="30" as="geometry" />
        </mxCell>
        <mxCell id="ywIWyBjBBA_NJopMtTMj-142" value="" style="rounded=0;whiteSpace=wrap;html=1;fillColor=none;" parent="WIyWlLk6GJQsqaUBKTNV-1" vertex="1">
          <mxGeometry x="1641.25" y="-513.5" width="242" height="347" as="geometry" />
        </mxCell>
        <mxCell id="ywIWyBjBBA_NJopMtTMj-143" value="" style="html=1;overflow=block;blockSpacing=1;whiteSpace=wrap;fontSize=13;spacing=9;strokeColor=#10739e;strokeOpacity=100;fillOpacity=100;rounded=1;absoluteArcSize=1;arcSize=9;fillColor=#b1ddf0;strokeWidth=2.3;lucidId=J80nYq8lnvE4;" parent="WIyWlLk6GJQsqaUBKTNV-1" vertex="1">
          <mxGeometry x="1465" y="-302.5" width="125" height="40" as="geometry" />
        </mxCell>
        <mxCell id="ywIWyBjBBA_NJopMtTMj-144" value="GNU Radio" style="text;html=1;align=center;verticalAlign=middle;whiteSpace=wrap;rounded=0;" parent="WIyWlLk6GJQsqaUBKTNV-1" vertex="1">
          <mxGeometry x="1473.5" y="-297.5" width="110" height="30" as="geometry" />
        </mxCell>
        <mxCell id="ywIWyBjBBA_NJopMtTMj-145" value="&lt;font style=&quot;font-size: 12px;&quot;&gt;GNU Radio on Linux&lt;br&gt;&lt;/font&gt;" style="html=1;overflow=block;blockSpacing=1;whiteSpace=wrap;fontSize=16.7;fontColor=#333333;spacing=9;strokeOpacity=0;fillOpacity=0;rounded=1;absoluteArcSize=1;arcSize=9;fillColor=#000000;strokeWidth=2.3;lucidId=gF1ngEjmAMdY;" parent="WIyWlLk6GJQsqaUBKTNV-1" vertex="1">
          <mxGeometry x="1641.25" y="-302.5" width="177.5" height="30" as="geometry" />
        </mxCell>
        <mxCell id="KWk6brRksMYwb1A9KvaT-0" value="&lt;font color=&quot;#ed333b&quot;&gt;USB2&lt;br&gt;&lt;/font&gt;" style="text;html=1;align=center;verticalAlign=middle;whiteSpace=wrap;rounded=0;" parent="WIyWlLk6GJQsqaUBKTNV-1" vertex="1">
          <mxGeometry x="2040" y="-56.5" width="67.5" height="10" as="geometry" />
        </mxCell>
        <mxCell id="KWk6brRksMYwb1A9KvaT-1" value="&lt;font color=&quot;#ed333b&quot;&gt;Software link&lt;br&gt;&lt;/font&gt;" style="text;html=1;align=center;verticalAlign=middle;whiteSpace=wrap;rounded=0;" parent="WIyWlLk6GJQsqaUBKTNV-1" vertex="1">
          <mxGeometry x="1850" y="50" width="97.5" height="10" as="geometry" />
        </mxCell>
      </root>
    </mxGraphModel>
  </diagram>
</mxfile>
